{
    "accessors": [
        {
            "bufferView": 0,
            "componentType": 5123,
            "count": 163440,
            "max": [
                33719
            ],
            "min": [
                0
            ],
            "type": "SCALAR"
        },
        {
            "bufferView": 1,
            "componentType": 5126,
            "count": 33720,
            "max": [
                12.603666305541992,
                36.727073669433594,
                -11.843955039978027
            ],
            "min": [
                -12.49658203125,
                -2.4622974395751953,
                -23.475147247314453
            ],
            "type": "VEC3"
        },
        {
            "bufferView": 2,
            "componentType": 5126,
            "count": 33720,
            "max": [
                0.9947400093078613,
                0.9969499707221985
            ],
            "min": [
                0.006010000128298998,
                0.0038300156593322754
            ],
            "type": "VEC2"
        },
        {
            "bufferView": 3,
            "componentType": 5126,
            "count": 33720,
            "max": [
                0.9995254874229431,
                0.999991238117218,
                0.9980571269989014
            ],
            "min": [
                -0.9995256662368774,
                -0.9999945163726807,
                -0.9955556988716125
            ],
            "type": "VEC3"
        },
        {
            "bufferView": 4,
            "componentType": 5123,
            "count": 21474,
            "max": [
                3956
            ],
            "min": [
                0
            ],
            "type": "SCALAR"
        },
        {
            "bufferView": 5,
            "componentType": 5126,
            "count": 3957,
            "max": [
                0.22953885793685913,
                27.738529205322266,
                -23.441753387451172
            ],
            "min": [
                -6.775527000427246,
                3.2693824768066406,
                -29.15239906311035
            ],
            "type": "VEC3"
        },
        {
            "bufferView": 6,
            "componentType": 5126,
            "count": 3957,
            "max": [
                0.3522300124168396,
                0.12835001945495605
            ],
            "min": [
                0.00877000018954277,
                0.00839996337890625
            ],
            "type": "VEC2"
        },
        {
            "bufferView": 7,
            "componentType": 5126,
            "count": 3957,
            "max": [
                0.9935380816459656,
                0.9994210600852966,
                0.9953082203865051
            ],
            "min": [
                -0.9991921782493591,
                -0.7349467277526855,
                -0.9958978295326233
            ],
            "type": "VEC3"
        },
        {
            "bufferView": 8,
            "componentType": 5123,
            "count": 138612,
            "max": [
                25337
            ],
            "min": [
                0
            ],
            "type": "SCALAR"
        },
        {
            "bufferView": 9,
            "componentType": 5126,
            "count": 25338,
            "max": [
                17.573652267456055,
                31.280303955078125,
                -1.2376174926757812
            ],
            "min": [
                -17.466567993164062,
                -15.176834106445312,
                -16.47230339050293
            ],
            "type": "VEC3"
        },
        {
            "bufferView": 10,
            "componentType": 5126,
            "count": 25338,
            "max": [
                0.9983000159263611,
                0.991599977016449
            ],
            "min": [
                0.00019999999494757503,
                0.0062999725341796875
            ],
            "type": "VEC2"
        },
        {
            "bufferView": 11,
            "componentType": 5126,
            "count": 25338,
            "max": [
                0.9999707341194153,
                0.9999736547470093,
                0.9999633431434631
            ],
            "min": [
                -0.9999412894248962,
                -0.9999998211860657,
                -0.9999974370002747
            ],
            "type": "VEC3"
        },
        {
            "bufferView": 12,
            "componentType": 5123,
            "count": 21474,
            "max": [
                3956
            ],
            "min": [
                0
            ],
            "type": "SCALAR"
        },
        {
            "bufferView": 13,
            "componentType": 5126,
            "count": 3957,
            "max": [
                6.984317779541016,
                27.730670928955078,
                -23.43967628479004
            ],
            "min": [
                -0.12889569997787476,
                3.2551212310791016,
                -28.990497589111328
            ],
            "type": "VEC3"
        },
        {
            "bufferView": 14,
            "componentType": 5126,
            "count": 3957,
            "max": [
                0.3522300124168396,
                0.12835001945495605
            ],
            "min": [
                0.00877000018954277,
                0.00839996337890625
            ],
            "type": "VEC2"
        },
        {
            "bufferView": 15,
            "componentType": 5126,
            "count": 3957,
            "max": [
                0.9988313317298889,
                0.999100923538208,
                0.9953046441078186
            ],
            "min": [
                -0.9938576817512512,
                -0.7304266095161438,
                -0.9960244297981262
            ],
            "type": "VEC3"
        },
        {
            "bufferView": 16,
            "componentType": 5123,
            "count": 42642,
            "max": [
                7826
            ],
            "min": [
                0
            ],
            "type": "SCALAR"
        },
        {
            "bufferView": 17,
            "componentType": 5126,
            "count": 7827,
            "max": [
                26.585878372192383,
                54.158660888671875,
                -12.325654983520508
            ],
            "min": [
                10.341325759887695,
                16.313899993896484,
                -24.01947021484375
            ],
            "type": "VEC3"
        },
        {
            "bufferView": 18,
            "componentType": 5126,
            "count": 7827,
            "max": [
                0.2003999948501587,
                0.36716997623443604
            ],
            "min": [
                0.00877000018954277,
                0.06703996658325195
            ],
            "type": "VEC2"
        },
        {
            "bufferView": 19,
            "componentType": 5126,
            "count": 7827,
            "max": [
                0.9553559422492981,
                0.9999316334724426,
                0.9993839859962463
            ],
            "min": [
                -0.9997735619544983,
                -0.993998646736145,
                -0.9999301433563232
            ],
            "type": "VEC3"
        },
        {
            "bufferView": 20,
            "componentType": 5123,
            "count": 42642,
            "max": [
                7826
            ],
            "min": [
                0
            ],
            "type": "SCALAR"
        },
        {
            "bufferView": 21,
            "componentType": 5126,
            "count": 7827,
            "max": [
                -10.122249603271484,
                53.63694381713867,
                -16.19276237487793
            ],
            "min": [
                -26.492366790771484,
                16.35968780517578,
                -23.973587036132812
            ],
            "type": "VEC3"
        },
        {
            "bufferView": 22,
            "componentType": 5126,
            "count": 7827,
            "max": [
                0.2003999948501587,
                0.36716997623443604
            ],
            "min": [
                0.00877000018954277,
                0.06703996658325195
            ],
            "type": "VEC2"
        },
        {
            "bufferView": 23,
            "componentType": 5126,
            "count": 7827,
            "max": [
                0.9983718991279602,
                0.9994433522224426,
                0.9993018507957458
            ],
            "min": [
                -0.9330543875694275,
                -0.986987829208374,
                -0.9973792433738708
            ],
            "type": "VEC3"
        }
    ],
    "asset": {
        "generator": "Created by RapidPipeline DCC Importer Module v1.0.1 | www.rapidpipeline.com",
        "version": "2.0"
    },
    "bufferViews": [
        {
            "buffer": 0,
            "byteLength": 326880,
            "byteOffset": 0,
            "target": 34963
        },
        {
            "buffer": 0,
            "byteLength": 404640,
            "byteOffset": 326880,
            "byteStride": 12,
            "target": 34962
        },
        {
            "buffer": 0,
            "byteLength": 269760,
            "byteOffset": 731520,
            "byteStride": 8,
            "target": 34962
        },
        {
            "buffer": 0,
            "byteLength": 404640,
            "byteOffset": 1001280,
            "byteStride": 12,
            "target": 34962
        },
        {
            "buffer": 0,
            "byteLength": 42948,
            "byteOffset": 1405920,
            "target": 34963
        },
        {
            "buffer": 0,
            "byteLength": 47484,
            "byteOffset": 1448868,
            "byteStride": 12,
            "target": 34962
        },
        {
            "buffer": 0,
            "byteLength": 31656,
            "byteOffset": 1496352,
            "byteStride": 8,
            "target": 34962
        },
        {
            "buffer": 0,
            "byteLength": 47484,
            "byteOffset": 1528008,
            "byteStride": 12,
            "target": 34962
        },
        {
            "buffer": 0,
            "byteLength": 277224,
            "byteOffset": 1575492,
            "target": 34963
        },
        {
            "buffer": 0,
            "byteLength": 304056,
            "byteOffset": 1852716,
            "byteStride": 12,
            "target": 34962
        },
        {
            "buffer": 0,
            "byteLength": 202704,
            "byteOffset": 2156772,
            "byteStride": 8,
            "target": 34962
        },
        {
            "buffer": 0,
            "byteLength": 304056,
            "byteOffset": 2359476,
            "byteStride": 12,
            "target": 34962
        },
        {
            "buffer": 0,
            "byteLength": 42948,
            "byteOffset": 2663532,
            "target": 34963
        },
        {
            "buffer": 0,
            "byteLength": 47484,
            "byteOffset": 2706480,
            "byteStride": 12,
            "target": 34962
        },
        {
            "buffer": 0,
            "byteLength": 31656,
            "byteOffset": 2753964,
            "byteStride": 8,
            "target": 34962
        },
        {
            "buffer": 0,
            "byteLength": 47484,
            "byteOffset": 2785620,
            "byteStride": 12,
            "target": 34962
        },
        {
            "buffer": 0,
            "byteLength": 85284,
            "byteOffset": 2833104,
            "target": 34963
        },
        {
            "buffer": 0,
            "byteLength": 93924,
            "byteOffset": 2918388,
            "byteStride": 12,
            "target": 34962
        },
        {
            "buffer": 0,
            "byteLength": 62616,
            "byteOffset": 3012312,
            "byteStride": 8,
            "target": 34962
        },
        {
            "buffer": 0,
            "byteLength": 93924,
            "byteOffset": 3074928,
            "byteStride": 12,
            "target": 34962
        },
        {
            "buffer": 0,
            "byteLength": 85284,
            "byteOffset": 3168852,
            "target": 34963
        },
        {
            "buffer": 0,
            "byteLength": 93924,
            "byteOffset": 3254136,
            "byteStride": 12,
            "target": 34962
        },
        {
            "buffer": 0,
            "byteLength": 62616,
            "byteOffset": 3348060,
            "byteStride": 8,
            "target": 34962
        },
        {
            "buffer": 0,
            "byteLength": 93924,
            "byteOffset": 3410676,
            "byteStride": 12,
            "target": 34962
        }
    ],
    "buffers": [
        {
            "byteLength": 3504600,
            "uri": "1472447.data.bin"
        }
    ],
    "extensionsUsed": [
        "KHR_texture_transform"
    ],
    "images": [
        {
            "uri": "trilobite_legs_base.png"
        },
        {
            "uri": "trilobite_legs_orm.png"
        },
        {
            "uri": "trilobite_spine_disp_base.png"
        },
        {
            "uri": "trilobite_spine_disp_orm.png"
        },
        {
            "uri": "trilobite_spine_disp_normal.png"
        }
    ],
    "materials": [
        {
            "name": "trilobite_legs",
            "pbrMetallicRoughness": {
                "baseColorFactor": [
                    1.0,
                    1.0,
                    1.0,
                    1.0
                ],
                "metallicFactor": 1.0,
                "roughnessFactor": 1.0,
                "baseColorTexture": {
                    "index": 0,
                    "extensions": {
                        "KHR_texture_transform": {
                            "scale": [
                                1.0,
                                1.0
                            ],
                            "rotation": 0.0,
                            "offset": [
                                0.0,
                                0.0
                            ]
                        }
                    }
                },
                "metallicRoughnessTexture": {
                    "index": 1,
                    "extensions": {
                        "KHR_texture_transform": {
                            "scale": [
                                1.0,
                                1.0
                            ],
                            "rotation": 0.0,
                            "offset": [
                                0.0,
                                0.0
                            ]
                        }
                    }
                }
            },
            "alphaMode": "OPAQUE",
            "doubleSided": true,
            "occlusionTexture": {
                "index": 1
            },
            "extras": {
                "DCCImporter": {
                    "uniqueName": "trilobite_legs",
                    "UUID": "7ec1cddd0744474ebbe521cf78c2cd23",
                    "level": 4
                }
            }
        },
        {
            "name": "trilobite_spine_disp",
            "pbrMetallicRoughness": {
                "baseColorFactor": [
                    1.0,
                    1.0,
                    1.0,
                    1.0
                ],
                "metallicFactor": 1.0,
                "roughnessFactor": 1.0,
                "baseColorTexture": {
                    "index": 2,
                    "extensions": {
                        "KHR_texture_transform": {
                            "scale": [
                                1.0,
                                1.0
                            ],
                            "rotation": 0.0,
                            "offset": [
                                0.0,
                                0.0
                            ]
                        }
                    }
                },
                "metallicRoughnessTexture": {
                    "index": 3,
                    "extensions": {
                        "KHR_texture_transform": {
                            "scale": [
                                1.0,
                                1.0
                            ],
                            "rotation": 0.0,
                            "offset": [
                                0.0,
                                0.0
                            ]
                        }
                    }
                }
            },
            "alphaMode": "OPAQUE",
            "doubleSided": true,
            "occlusionTexture": {
                "index": 3
            },
            "normalTexture": {
                "index": 4,
                "extensions": {
                    "KHR_texture_transform": {
                        "scale": [
                            1.0,
                            1.0
                        ],
                        "rotation": 0.0,
                        "offset": [
                            0.0,
                            0.0
                        ]
                    }
                }
            },
            "extras": {
                "DCCImporter": {
                    "uniqueName": "trilobite_spine_disp",
                    "UUID": "33beac1d3fa746c38288de9cfff44a6e",
                    "level": 2
                }
            }
        }
    ],
    "meshes": [
        {
            "name": "3__RPDP_HANDLE_3",
            "primitives": [
                {
                    "attributes": {
                        "NORMAL": 3,
                        "POSITION": 1,
                        "TEXCOORD_0": 2
                    },
                    "indices": 0,
                    "material": 0,
                    "mode": 4
                }
            ]
        },
        {
            "name": "4__RPDP_HANDLE_4",
            "primitives": [
                {
                    "attributes": {
                        "NORMAL": 7,
                        "POSITION": 5,
                        "TEXCOORD_0": 6
                    },
                    "indices": 4,
                    "material": 0,
                    "mode": 4
                }
            ]
        },
        {
            "name": "5__RPDP_HANDLE_5",
            "primitives": [
                {
                    "attributes": {
                        "NORMAL": 11,
                        "POSITION": 9,
                        "TEXCOORD_0": 10
                    },
                    "indices": 8,
                    "material": 1,
                    "mode": 4
                }
            ]
        },
        {
            "name": "6__RPDP_HANDLE_6",
            "primitives": [
                {
                    "attributes": {
                        "NORMAL": 15,
                        "POSITION": 13,
                        "TEXCOORD_0": 14
                    },
                    "indices": 12,
                    "material": 0,
                    "mode": 4
                }
            ]
        },
        {
            "name": "7__RPDP_HANDLE_7",
            "primitives": [
                {
                    "attributes": {
                        "NORMAL": 19,
                        "POSITION": 17,
                        "TEXCOORD_0": 18
                    },
                    "indices": 16,
                    "material": 0,
                    "mode": 4
                }
            ]
        },
        {
            "name": "8__RPDP_HANDLE_8",
            "primitives": [
                {
                    "attributes": {
                        "NORMAL": 23,
                        "POSITION": 21,
                        "TEXCOORD_0": 22
                    },
                    "indices": 20,
                    "material": 0,
                    "mode": 4
                }
            ]
        }
    ],
    "nodes": [
        {
            "children": [
                1
            ],
            "matrix": [
                0.01,
                0,
                0,
                0,
                0,
                -2.220446049250313e-18,
                -0.010000000000000002,
                0,
                0,
                0.010000000000000002,
                -2.220446049250313e-18,
                0,
                -0.0005603807830810298,
                4.7247314449716526e-07,
                0.08038797549438478,
                1
            ],
            "name": "root"
        },
        {
            "children": [
                2,
                3,
                4,
                5,
                6,
                7
            ],
            "matrix": [
                1,
                0,
                0,
                0,
                0,
                1,
                0,
                0,
                0,
                0,
                1,
                0,
                7.62939e-06,
                0,
                0,
                1
            ],
            "name": "Trilobite_Fur"
        },
        {
            "matrix": [
                1,
                0,
                0,
                0,
                0,
                1,
                0,
                0,
                0,
                0,
                1,
                0,
                -0.05354912939,
                -17.917,
                23.4751,
                1
            ],
            "mesh": 0,
            "name": "Trilobite_legs"
        },
        {
            "matrix": [
                1,
                0,
                0,
                0,
                0,
                1,
                0,
                0,
                0,
                0,
                1,
                0,
                -0.92012462939,
                13.6727,
                32.6108,
                1
            ],
            "mesh": 1,
            "name": "tail_r"
        },
        {
            "matrix": [
                1,
                0,
                0,
                0,
                0,
                1,
                0,
                0,
                0,
                0,
                1,
                0,
                -0.05354692939,
                -10.1568,
                20.5334,
                1
            ],
            "mesh": 2,
            "name": "Trilobite_spine"
        },
        {
            "matrix": [
                1,
                0,
                0,
                0,
                0,
                1,
                0,
                0,
                0,
                0,
                1,
                0,
                0.81302737061,
                13.6727,
                32.6108,
                1
            ],
            "mesh": 3,
            "name": "tail_l"
        },
        {
            "matrix": [
                1,
                0,
                0,
                0,
                0,
                1,
                0,
                0,
                0,
                0,
                1,
                0,
                -29.554607629390002,
                -38.5266,
                29.1511,
                1
            ],
            "mesh": 4,
            "name": "mustache_r"
        },
        {
            "matrix": [
                1,
                0,
                0,
                0,
                0,
                1,
                0,
                0,
                0,
                0,
                1,
                0,
                29.44759237061,
                -38.5266,
                29.1511,
                1
            ],
            "mesh": 5,
            "name": "mustache_l"
        }
    ],
    "scene": 0,
    "scenes": [
        {
            "nodes": [
                0
            ]
        }
    ],
    "textures": [
        {
            "source": 0
        },
        {
            "source": 1
        },
        {
            "source": 2
        },
        {
            "source": 3
        },
        {
            "source": 4
        }
    ]
}